<?xml version="1.0" encoding="iso-8859-1"?>
<!-- Generator: Adobe Illustrator 16.0.0, SVG Export Plug-In . SVG Version: 6.00 Build 0)  -->
<!DOCTYPE svg PUBLIC "-//W3C//DTD SVG 1.1//EN" "http://www.w3.org/Graphics/SVG/1.1/DTD/svg11.dtd">
<svg version="1.1" id="Capa_1" xmlns="http://www.w3.org/2000/svg" xmlns:xlink="http://www.w3.org/1999/xlink" x="0px" y="0px"
	 width="32.25px" height="32.25px" viewBox="0 0 32.25 32.25" style="enable-background:new 0 0 32.25 32.25;" xml:space="preserve"
	>
<g>
	<path d="M16.125,0C7.233,0,0,7.232,0,16.125C0,25.018,7.233,32.25,16.125,32.25c8.893,0,16.125-7.232,16.125-16.125
		C32.25,7.232,25.016,0,16.125,0z M16.125,28.25C9.439,28.25,4,22.811,4,16.125C4,9.439,9.439,4,16.125,4
		C22.811,4,28.25,9.439,28.25,16.125C28.25,22.811,22.811,28.25,16.125,28.25z M21.25,16.125c0,2.83-2.295,5.125-5.125,5.125
		S11,18.955,11,16.125S13.295,11,16.125,11S21.25,13.295,21.25,16.125z"/>
</g>
<g>
</g>
<g>
</g>
<g>
</g>
<g>
</g>
<g>
</g>
<g>
</g>
<g>
</g>
<g>
</g>
<g>
</g>
<g>
</g>
<g>
</g>
<g>
</g>
<g>
</g>
<g>
</g>
<g>
</g>
</svg>
